<svg width="64" height="64" viewBox="0 0 64 64" fill="none" xmlns="http://www.w3.org/2000/svg">
  <rect width="64" height="64" rx="16" fill="#7C2D12"/>
  <circle cx="32" cy="18" r="8" fill="#F59E0B"/>
  <path
    d="M18 36C18 28.268 24.268 22 32 22C39.732 22 46 28.268 46 36V38H18V36Z"
    fill="#15803D"
  />
  <path
    d="M31 28H33V41.5C33 43.9853 35.0147 46 37.5 46H42V48H37.5C34.8431 48 32.5426 46.4663 31.4308 44.2387C30.319 46.4663 28.0185 48 25.3616 48H21V46H25.3616C27.8469 46 29.8616 43.9853 29.8616 41.5V28H31Z"
    fill="#FDE68A"
  />
  <path
    d="M24 38H40C40 44.6274 34.6274 50 28 50H24V38Z"
    fill="#A16207"
    fill-opacity="0.9"
  />
  <path
    d="M40 38H24C24 44.6274 29.3726 50 36 50H40V38Z"
    fill="#92400E"
    fill-opacity="0.9"
  />
</svg>
